<?xml version="1.0" standalone="no"?><!DOCTYPE svg PUBLIC "-//W3C//DTD SVG 1.1//EN" "http://www.w3.org/Graphics/SVG/1.1/DTD/svg11.dtd"><svg t="1760909644155" class="icon" viewBox="0 0 1024 1024" version="1.1" xmlns="http://www.w3.org/2000/svg" p-id="1609" xmlns:xlink="http://www.w3.org/1999/xlink" width="200" height="200"><path d="M860.84 308.81c-30.53 0-55.36-24.83-55.36-55.36 0-30.52 24.83-55.35 55.36-55.35s55.36 24.83 55.36 55.35c0 30.52-24.83 55.36-55.36 55.36z m0-71.59c-8.95 0-16.23 7.28-16.23 16.22 0 8.95 7.28 16.23 16.23 16.23s16.23-7.28 16.23-16.23c0-8.94-7.28-16.22-16.23-16.22z" fill="#40A2D4" p-id="1610"></path><path d="M696.64 342.04c-3.53 0-7.1-0.95-10.31-2.95-9.18-5.71-11.99-17.77-6.29-26.95 39.56-63.63 43.98-65.7 49.58-68.31 4.61-2.15 8.96-4.18 89.76-1.83 10.8 0.32 19.3 9.33 18.99 20.13-0.32 10.8-9.42 19.2-20.13 18.99-26.51-0.78-57.54-1.22-70.67-0.84-7.12 9.8-22.04 32.82-34.29 52.53-3.71 5.96-10.1 9.23-16.64 9.23z m45.46-61.44z m8.71-4.48z" fill="#40A2D4" p-id="1611"></path><path d="M345.38 967.48c-0.23 0-0.46-0.01-0.69-0.01-11.72-0.37-20.91-10.18-20.54-21.9 0.01-0.33 1.04-33.57-1.06-62.99-1.04-14.56-13.2-19.04-15.63-19.79-1.33-0.42-60.8-19.84-90.28-26.15-35.27-7.57-49.82-36.31-52.86-52.1-0.23-1.22-0.36-2.45-0.38-3.69l-1.97-132.12-30.75-8.46c-27.45-7.57-45.11-34.52-41.09-62.7 0.36-2.49 1.16-4.91 2.36-7.13l96.04-176.77-6.7-24.29c-11.29-40.94-9.09-85.19 6.21-124.61 7.65-19.72 16.81-37.99 27.24-54.3 9.21-14.41 21.25-27.71 35.79-39.53 269.7-219.45 512.2 11.95 514.62 14.32 8.38 8.19 8.54 21.63 0.34 30.01-8.19 8.39-21.63 8.55-30.01 0.35-9.14-8.86-218.39-206.85-458.16-11.75-11.03 8.97-20.04 18.88-26.81 29.46-8.91 13.94-16.8 29.69-23.43 46.79-12.02 30.98-13.74 65.76-4.86 97.96l8.98 32.54c1.46 5.3 0.81 10.95-1.81 15.78l-97.87 180.15c0.41 5.92 4.52 11.15 10.45 12.78l46.1 12.69a21.234 21.234 0 0 1 15.59 20.15l2.17 145.54c1.21 3.71 5.86 14.45 19.72 17.43 31.66 6.79 91.33 26.27 93.85 27.09 15 4.01 42.91 21.03 45.5 57.34 2.26 31.67 1.2 65.94 1.15 67.38-0.38 11.47-9.8 20.53-21.21 20.53z" fill="#40A2D4" p-id="1612"></path><path d="M345.38 974l-0.87-0.02c-15.32-0.49-27.36-13.33-26.87-28.63 0.04-1.38 0.98-33.87-1.05-62.31-0.72-10.06-8.64-13.28-11.05-14.02-15.17-4.91-64.12-20.52-89.72-26.01-38.6-8.28-54.55-39.89-57.9-57.25-0.31-1.6-0.47-3.21-0.5-4.82l-1.9-127.24-26.03-7.16c-30.61-8.44-50.3-38.49-45.81-69.92 0.46-3.27 1.5-6.41 3.09-9.32l94.78-174.46-6-21.75c-11.66-42.28-9.38-87.99 6.41-128.7 7.81-20.12 17.17-38.78 27.82-55.45 9.59-15 22.09-28.82 37.17-41.08 273.86-222.84 520.83 12.31 523.29 14.71 10.95 10.71 11.15 28.31 0.45 39.25-5.17 5.3-12.11 8.27-19.52 8.35-7.49 0.3-14.42-2.72-19.72-7.91-8.62-8.35-214.15-202.83-449.48-11.35-10.49 8.53-19.05 17.92-25.43 27.91-8.67 13.57-16.36 28.93-22.85 45.64-11.51 29.67-13.16 63.01-4.65 93.87l8.98 32.54a27.604 27.604 0 0 1-2.37 20.63l-96.82 178.2c0.74 2.55 2.75 4.6 5.39 5.32l46.1 12.69c11.81 3.26 20.19 14.09 20.38 26.34l2.15 144.47c1.36 3.54 5.12 10.18 14.58 12.22 30.78 6.6 87.99 25.14 94.41 27.23 15.91 4.25 47.22 23.02 50.08 63.11 2.31 32.31 1.18 67.71 1.16 68.06-0.47 15.06-12.64 26.86-27.7 26.86zM495.26 63.29c-72.73 0-155.06 23.52-240.07 92.7-14 11.38-25.58 24.15-34.41 37.98-10.19 15.95-19.16 33.83-26.66 53.15-14.79 38.12-16.92 80.92-6 120.51l7.4 26.83-97.29 179.08c-0.84 1.54-1.39 3.2-1.63 4.93-3.57 24.95 12.07 48.81 36.36 55.5l35.47 9.76 2.04 137.02c0.01 0.86 0.1 1.72 0.26 2.57 2.73 14.21 15.88 40.1 47.82 46.95 26.19 5.61 75.68 21.39 90.22 26.1 3.75 1.17 19.48 6.96 20.82 25.75 2.08 29.09 1.12 62.23 1.08 63.62-0.26 8.14 6.12 14.95 14.23 15.21l0.48 6.53v-6.52c7.97 0 14.43-6.25 14.68-14.23 0.01-0.35 1.12-35.07-1.14-66.7-2.34-32.75-27.64-48.01-40.69-51.5-6.78-2.2-63.39-20.55-93.53-27.01-17.4-3.73-23.19-17.61-24.56-21.78l-0.32-1.93-2.17-145.53c-0.1-6.49-4.54-12.23-10.81-13.96l-46.1-12.69c-8.5-2.34-14.61-9.82-15.22-18.61l-0.13-1.89 98.78-181.82c1.82-3.36 2.27-7.25 1.25-10.94l-8.97-32.54c-9.25-33.55-7.46-69.79 5.07-102.06 6.8-17.52 14.88-33.64 24.01-47.94 7.14-11.17 16.62-21.6 28.19-31.01 244.21-198.72 457.84 3.42 466.81 12.12 2.83 2.77 6.47 4.2 10.47 4.21 3.92-0.05 7.6-1.62 10.34-4.43 5.67-5.8 5.57-15.13-0.23-20.8-1.58-1.58-112.22-106.63-265.85-106.63zM694.59 967.48c-11.72 0-21.23-9.5-21.23-21.23V825.53c0-22.86 26.56-60.08 42.4-80.23l68.15-97.18c6.73-9.6 19.97-11.91 29.57-5.18 9.6 6.74 11.92 19.98 5.18 29.57l-68.84 98.09c-17.48 22.32-33.07 47.79-34.03 55.41l0.02 120.23c0.01 11.74-9.5 21.24-21.22 21.24z" fill="#40A2D4" p-id="1613"></path><path d="M694.59 974c-15.3 0-27.75-12.45-27.75-27.75V825.53c0-23.58 23.81-58.83 43.79-84.26l67.94-96.89c8.78-12.52 26.12-15.56 38.65-6.78 12.53 8.8 15.57 26.14 6.78 38.66l-68.84 98.09c-18.91 24.16-32.27 47.52-32.9 52.48l0.07 119.42c0.01 15.3-12.44 27.75-27.74 27.75z m106.72-328.38c-4.64 0-9.2 2.18-12.06 6.25l-68.15 97.17c-26.27 33.45-41.21 61.23-41.21 76.49v120.72c0 8.11 6.6 14.7 14.7 14.7 8.11 0 14.7-6.6 14.7-14.7l-0.02-120.23c1.32-10.86 19.03-38.51 35.42-59.44l68.63-97.82c4.66-6.64 3.04-15.83-3.59-20.49-2.56-1.79-5.5-2.65-8.42-2.65zM940.95 458.13c0 22.81-9.38 34.21-28.14 34.21h-72.84v75.6c0 11.78-2.95 20.24-8.83 25.38-5.89 5.16-14.35 7.73-25.38 7.73-11.41 0-20.06-2.67-25.94-8-5.89-5.33-8.83-13.88-8.83-25.66v-75.04h-67.87c-11.78 0-20.24-2.94-25.38-8.83-5.16-5.88-7.73-14.35-7.73-25.38 0-11.4 2.66-20.05 8-25.94 5.33-5.88 13.88-8.83 25.66-8.83H771v-76.7c0-8.46 2.94-15.17 8.83-20.14 5.88-4.96 14.53-7.45 25.94-7.45 22.8 0 34.21 9.38 34.21 28.14v76.15h73.39c8.83 0 15.63 3.03 20.42 9.1 4.77 6.07 7.16 14.63 7.16 25.66z" fill="#40A2D4" p-id="1614"></path><path d="M362.19 562.85l-18.26 47.72c-2.49 6.63-5.95 11.96-10.37 15.97-4.43 4-10.93 6.02-19.5 6.02-8.58 0-15.42-2.35-20.54-7.06-5.12-4.69-5.75-12.71-1.87-24.06l85.47-249.36c1.38-4.42 4.36-8.37 8.92-11.83 4.56-3.45 10.71-5.19 18.46-5.19 7.74 0 13.9 1.74 18.46 5.19 4.56 3.46 7.53 7.4 8.92 11.83l86.3 250.19c3.32 10.52 2.42 18.19-2.7 23.03-5.12 4.83-11.97 7.26-20.54 7.26-8.58 0.27-14.94-1.6-19.09-5.6-4.15-4.01-7.33-8.78-9.54-14.31l-19.92-49.79h-84.2z m74.27-46.89l-31.95-102.89-31.95 102.89h63.9zM604.9 606c0 8.86-2.14 15.5-6.43 19.92-4.29 4.42-11.27 6.64-20.95 6.64-9.69 0-16.53-2.22-20.54-6.64-4.01-4.41-6.02-10.92-6.02-19.5v-244.8c0-17.7 8.85-26.56 26.55-26.56 8.85 0 15.62 1.94 20.33 5.81 4.7 3.88 7.05 10.65 7.05 20.33V606z" fill="#40A2D4" p-id="1615"></path></svg>